<svg width="40" height="40" viewBox="0 0 40 40" fill="none" xmlns="http://www.w3.org/2000/svg">
<g id="Group">
<path id="Vector" fill-rule="evenodd" clip-rule="evenodd" d="M16.0918 5.66669C17.4519 6.10833 18.7618 6.69152 20.0001 7.40669C21.2384 6.69152 22.5484 6.10833 23.9085 5.66669C27.3151 4.59002 30.7085 4.78169 32.9635 7.03669C35.2185 9.29169 35.4101 12.6867 34.3335 16.0917C33.8918 17.4517 33.3086 18.7617 32.5935 20C33.3535 21.3384 33.9351 22.65 34.3335 23.9084C35.4101 27.3134 35.2185 30.7084 32.9635 32.9634C30.7101 35.2184 27.3135 35.41 23.9085 34.3334C22.5484 33.8917 21.2384 33.3085 20.0001 32.5934C18.7618 33.3085 17.4519 33.8917 16.0918 34.3334C12.6868 35.4084 9.29181 35.2184 7.03681 32.9634C4.78181 30.7084 4.59181 27.3134 5.66681 23.9084C6.06514 22.6484 6.64681 21.3384 7.40681 20C6.69165 18.7617 6.10845 17.4518 5.66681 16.0917C4.59181 12.685 4.78348 9.29169 7.03681 7.03669C9.29181 4.78169 12.6868 4.59002 16.0918 5.66669ZM30.4835 23.1817C29.5001 24.4784 28.3601 25.7817 27.0718 27.0717C25.8542 28.2955 24.5545 29.4348 23.1818 30.4817C23.7801 30.755 24.3585 30.98 24.9135 31.155C27.7435 32.0484 29.6068 31.605 30.6068 30.605C31.6068 29.6067 32.0501 27.7417 31.1568 24.9134C30.968 24.3223 30.7432 23.7435 30.4835 23.18V23.1817ZM9.51681 23.1817C9.25782 23.7447 9.03351 24.323 8.84514 24.9134C7.95181 27.7434 8.39514 29.6067 9.39514 30.6067C10.3935 31.6067 12.2585 32.0484 15.0868 31.155C15.6435 30.98 16.2201 30.755 16.8201 30.4817C15.4474 29.4348 14.1477 28.2955 12.9301 27.0717C11.7058 25.8541 10.5642 24.5545 9.51681 23.1817ZM20.0001 11.3334C18.3091 12.5011 16.7311 13.8247 15.2868 15.2867C13.8248 16.7309 12.5012 18.3089 11.3335 20C12.5002 21.6909 13.8226 23.2689 15.2835 24.7134C16.8885 26.3184 18.4768 27.63 20.0001 28.6667C21.6912 27.4989 23.2692 26.1754 24.7135 24.7134C26.1749 23.269 27.4979 21.691 28.6651 20C27.4986 18.3085 26.1761 16.7299 24.7151 15.285C23.2702 13.8241 21.6916 12.5 20.0001 11.3334ZM20.0001 17.5C20.6632 17.5 21.2991 17.7634 21.7679 18.2323C22.2368 18.7011 22.5001 19.337 22.5001 20C22.5001 20.6631 22.2368 21.2989 21.7679 21.7678C21.2991 22.2366 20.6632 22.5 20.0001 22.5C19.3371 22.5 18.7012 22.2366 18.2324 21.7678C17.7635 21.2989 17.5001 20.6631 17.5001 20C17.5001 19.337 17.7635 18.7011 18.2324 18.2323C18.7012 17.7634 19.3371 17.5 20.0001 17.5ZM9.39348 9.39335C8.39348 10.3934 7.95181 12.2567 8.84514 15.0867C9.02014 15.6417 9.24514 16.22 9.51848 16.82C10.5018 15.52 11.6401 14.2184 12.9301 12.9284C14.1472 11.7046 15.4463 10.5653 16.8185 9.51835C16.2555 9.25878 15.6772 9.03392 15.0868 8.84502C12.2585 7.95169 10.3935 8.39502 9.39348 9.39335ZM24.9135 8.84502C24.3585 9.02002 23.7801 9.24502 23.1818 9.51835C24.4785 10.5017 25.7818 11.64 27.0718 12.9284C28.2962 14.1459 29.4361 15.4456 30.4835 16.8184C30.7568 16.22 30.9801 15.6417 31.1551 15.0867C32.0501 12.2567 31.6068 10.3934 30.6068 9.39335C29.6068 8.39335 27.7435 7.95169 24.9135 8.84502Z" fill="#1A1A1A"/>
</g>
</svg>
