<svg width="40" height="40" viewBox="0 0 40 40" fill="none" xmlns="http://www.w3.org/2000/svg">
<g id="material-symbols:science-outline">
<path id="Vector" d="M7.07917 36.6667C5.51014 36.6667 4.39459 35.9649 3.73252 34.5611C3.07045 33.1574 3.23227 31.8531 4.21799 30.6482L14.4628 18.1482V7.03708H12.6169C12.0939 7.03708 11.6552 6.8593 11.3008 6.50375C10.9464 6.14819 10.7698 5.70869 10.771 5.18523C10.771 4.66054 10.9482 4.22042 11.3026 3.86486C11.657 3.50931 12.0951 3.33215 12.6169 3.33338H27.3843C27.9073 3.33338 28.346 3.51116 28.7004 3.86671C29.0548 4.22227 29.2314 4.66178 29.2302 5.18523C29.2302 5.70992 29.053 6.15005 28.6986 6.5056C28.3442 6.86116 27.9061 7.03832 27.3843 7.03708H25.5384V18.1482L35.7832 30.6482C36.7677 31.8519 36.9295 33.1562 36.2687 34.5611C35.6078 35.9661 34.4923 36.6679 32.922 36.6667H7.07917ZM7.07917 32.963H32.922L21.8465 19.4445V7.03708H18.1547V19.4445L7.07917 32.963Z" fill="#1A1A1A"/>
</g>
</svg>
