<svg width="40" height="40" viewBox="0 0 40 40" fill="none" xmlns="http://www.w3.org/2000/svg">
<g id="material-symbols:biotech-outline">
<path id="Vector" d="M8.3335 36.6667V33.1579H17.2621V29.6492C14.7918 29.6492 12.6859 28.7936 10.9442 27.0825C9.20254 25.3714 8.33231 23.303 8.3335 20.8772C8.3335 19.0936 8.83231 17.4708 9.82993 16.0088C10.8275 14.5468 12.174 13.4796 13.8692 12.8071C14.1073 11.8129 14.6359 11.0088 15.4549 10.3948C16.274 9.78074 17.2037 9.47372 18.2442 9.47372L17.2621 6.75443L18.9585 6.14039L18.3335 4.56144L21.7264 3.33337L22.2621 5.00004L23.9585 4.38601L28.8692 17.5439L27.1728 18.1579L27.7978 19.8246L24.4049 21.0527L23.8692 19.386L22.1728 20L21.1014 17.1053C20.6549 17.5147 20.1412 17.8217 19.5603 18.0264C18.9793 18.231 18.3918 18.3041 17.7978 18.2457C17.143 18.1872 16.5329 17.9895 15.9674 17.6527C15.4019 17.3158 14.9109 16.8995 14.4942 16.4035C13.6906 16.8714 13.0585 17.5 12.5978 18.2895C12.1371 19.079 11.9061 19.9416 11.9049 20.8772C11.9049 22.3392 12.4258 23.5819 13.4674 24.6053C14.5091 25.6287 15.774 26.1404 17.2621 26.1404H31.5478V29.6492H22.6192V33.1579H33.3335V36.6667H8.3335ZM23.7799 16.579L25.3871 15.965L22.3514 7.71934L20.6549 8.33337L23.7799 16.579ZM18.1549 15.6141C18.6609 15.6141 19.0853 15.4457 19.4281 15.1088C19.771 14.772 19.9418 14.3556 19.9406 13.8597C19.9406 13.3626 19.7692 12.9457 19.4264 12.6088C19.0835 12.272 18.6597 12.1041 18.1549 12.1053C17.649 12.1053 17.2246 12.2737 16.8817 12.6106C16.5389 12.9474 16.368 13.3638 16.3692 13.8597C16.3692 14.3568 16.5406 14.7737 16.8835 15.1106C17.2264 15.4474 17.6502 15.6152 18.1549 15.6141Z" fill="#1A1A1A"/>
</g>
</svg>
